<mxfile host="app.diagrams.net" modified="2022-06-23T09:46:06.517Z" agent="5.0 (Windows)" etag="QzJTyaCojqgR4pP45BR8" version="19.0.3" type="github">
  <diagram id="-NXDns5EEfKs7jDFzSWu" name="Page-1">
    <mxGraphModel dx="1301" dy="1420" grid="1" gridSize="10" guides="1" tooltips="1" connect="1" arrows="1" fold="1" page="1" pageScale="1" pageWidth="827" pageHeight="1169" math="0" shadow="0">
      <root>
        <mxCell id="0" />
        <mxCell id="1" parent="0" />
        <mxCell id="3YnLlSAnY3RUSMw4EG0U-1" value="" style="rounded=0;whiteSpace=wrap;html=1;fillColor=#1ba1e2;strokeColor=#006EAF;fontColor=#ffffff;" vertex="1" parent="1">
          <mxGeometry width="900" height="600" as="geometry" />
        </mxCell>
        <mxCell id="3YnLlSAnY3RUSMw4EG0U-2" value="" style="ellipse;whiteSpace=wrap;html=1;aspect=fixed;shadow=0;fillColor=#76608a;strokeColor=#432D57;fontColor=#ffffff;" vertex="1" parent="1">
          <mxGeometry x="-30" y="-30" width="60" height="60" as="geometry" />
        </mxCell>
        <mxCell id="3YnLlSAnY3RUSMw4EG0U-21" value="" style="ellipse;whiteSpace=wrap;html=1;aspect=fixed;shadow=0;fillColor=#76608a;strokeColor=#432D57;fontColor=#ffffff;" vertex="1" parent="1">
          <mxGeometry width="60" height="60" as="geometry" />
        </mxCell>
        <mxCell id="3YnLlSAnY3RUSMw4EG0U-1700" value="" style="ellipse;whiteSpace=wrap;html=1;aspect=fixed;shadow=0;fillColor=#76608a;strokeColor=#432D57;fontColor=#ffffff;" vertex="1" parent="1">
          <mxGeometry x="30" y="-30" width="60" height="60" as="geometry" />
        </mxCell>
        <mxCell id="3YnLlSAnY3RUSMw4EG0U-1701" value="" style="endArrow=none;html=1;rounded=0;" edge="1" parent="1" target="3YnLlSAnY3RUSMw4EG0U-21">
          <mxGeometry width="50" height="50" relative="1" as="geometry">
            <mxPoint as="sourcePoint" />
            <mxPoint x="50" y="-50" as="targetPoint" />
          </mxGeometry>
        </mxCell>
      </root>
    </mxGraphModel>
  </diagram>
</mxfile>
